<svg xmlns="http://www.w3.org/2000/svg" width="256" height="256" viewBox="0 0 100 100"><rect width="100" height="100" rx="50" fill="#000000"></rect><path fill="#fff" d="M65.97 59.72L65.97 59.72Q65.97 65.48 61.75 68.72Q57.52 71.96 49.51 71.96L49.51 71.96Q46.09 71.96 43.21 71.38Q40.33 70.79 38.30 69.85Q36.28 68.90 35.15 67.69Q34.03 66.47 34.03 65.21L34.03 65.21Q34.03 64.13 34.61 63.14Q35.20 62.15 36.37 61.43L36.37 61.43Q38.80 63.23 42.04 64.63Q45.28 66.02 49.42 66.02L49.42 66.02Q58.78 66.02 58.78 59.72L58.78 59.72Q58.78 54.59 52.57 53.06L52.57 53.06L45.10 51.08Q39.61 49.64 37.09 46.90Q34.57 44.15 34.57 39.83L34.57 39.83Q34.57 37.49 35.51 35.33Q36.46 33.17 38.44 31.55Q40.42 29.93 43.34 28.99Q46.27 28.04 50.23 28.04L50.23 28.04Q56.53 28.04 60.40 29.89Q64.27 31.73 64.27 34.16L64.27 34.16Q64.27 35.33 63.68 36.23Q63.10 37.13 62.11 37.58L62.11 37.58Q60.48 36.50 57.52 35.24Q54.55 33.98 50.50 33.98L50.50 33.98Q46.45 33.98 44.06 35.51Q41.68 37.04 41.68 39.83L41.68 39.83Q41.68 41.90 43.03 43.34Q44.38 44.78 47.53 45.50L47.53 45.50L53.73 47.03Q59.86 48.56 62.92 51.58Q65.97 54.59 65.97 59.72Z"></path></svg>