<svg xmlns="http://www.w3.org/2000/svg" width="256" height="256" viewBox="0 0 100 100"><rect width="100" height="100" rx="50" fill="#ffffff"></rect><path d="M47.57 28.45L47.57 79.30Q47.12 79.47 46.17 79.70Q45.23 79.92 44.24 79.92L44.24 79.92Q40.37 79.92 40.37 76.59L40.37 76.59L40.37 61.39Q38.57 62.47 36.01 63.23Q33.44 64.00 29.93 64.00L29.93 64.00Q25.52 64.00 21.79 62.73Q18.05 61.48 15.35 58.87Q12.65 56.26 11.12 52.12Q9.59 47.98 9.59 42.31L9.59 42.31Q9.59 36.64 11.21 32.45Q12.83 28.27 15.71 25.52Q18.59 22.78 22.51 21.43Q26.42 20.08 30.92 20.08L30.92 20.08Q35.24 20.08 38.75 21.16Q42.26 22.24 44.60 23.68L44.60 23.68Q45.95 24.49 46.76 25.66Q47.57 26.83 47.57 28.45L47.57 28.45ZM31.01 58.06L31.01 58.06Q33.89 58.06 36.32 57.20Q38.75 56.35 40.37 55.00L40.37 55.00L40.37 28.54Q38.84 27.55 36.55 26.78Q34.25 26.02 31.10 26.02L31.10 26.02Q28.22 26.02 25.66 26.92Q23.09 27.82 21.16 29.80Q19.22 31.78 18.10 34.84Q16.97 37.90 16.97 42.31L16.97 42.31Q16.97 50.59 20.80 54.32Q24.62 58.06 31.01 58.06ZM90.41 51.76L90.41 51.76Q90.41 57.52 86.18 60.76Q81.95 64.00 73.94 64.00L73.94 64.00Q70.52 64.00 67.64 63.41Q64.76 62.83 62.74 61.88Q60.71 60.94 59.59 59.72Q58.46 58.51 58.46 57.25L58.46 57.25Q58.46 56.17 59.05 55.18Q59.63 54.19 60.80 53.47L60.80 53.47Q63.23 55.27 66.47 56.66Q69.71 58.06 73.85 58.06L73.85 58.06Q83.21 58.06 83.21 51.76L83.21 51.76Q83.21 46.63 77 45.09L77 45.09L69.53 43.12Q64.04 41.68 61.52 38.93Q59.00 36.19 59.00 31.87L59.00 31.87Q59.00 29.53 59.95 27.37Q60.89 25.21 62.87 23.59Q64.85 21.97 67.78 21.02Q70.70 20.08 74.66 20.08L74.66 20.08Q80.96 20.08 84.83 21.92Q88.70 23.77 88.70 26.20L88.70 26.20Q88.70 27.37 88.12 28.27Q87.53 29.17 86.54 29.62L86.54 29.62Q84.92 28.54 81.95 27.28Q78.98 26.02 74.93 26.02L74.93 26.02Q70.88 26.02 68.50 27.55Q66.11 29.08 66.11 31.87L66.11 31.87Q66.11 33.94 67.46 35.38Q68.81 36.82 71.96 37.54L71.96 37.54L78.17 39.07Q84.29 40.59 87.35 43.61Q90.41 46.63 90.41 51.76Z" fill="#000000"></path></svg>